<?xml version="1.0" encoding="UTF-8"?><svg id="Calque_1" xmlns="http://www.w3.org/2000/svg" viewBox="0 0 3529.53 2653.9"><defs><style>.cls-1{letter-spacing:-.07em;}.cls-2{font-size:40px;letter-spacing:-.08em;}.cls-2,.cls-3{font-family:EpilogueRoman-Light, Epilogue;font-variation-settings:'wght' 300;font-weight:300;}.cls-2,.cls-3,.cls-4{fill:#41291f;}.cls-3{font-size:60px;}.cls-5{letter-spacing:-.1em;}.cls-6{letter-spacing:-.08em;}.cls-7{letter-spacing:-.07em;}</style></defs><text class="cls-2" transform="translate(2072.12 1235.07) scale(1.08 1)"><tspan x="0" y="0">Since 1998</tspan></text><path class="cls-4" d="M1550.69,1154.98v-99.5h90.75v-37.75h-136.25v175h138v-37.75h-92.5ZM1543.94,1088.73v32.25h95.25v-32.25h-95.25Z"/><path class="cls-4" d="M1652.94,1017.73v175h41.75v-175h-41.75Z"/><path class="cls-4" d="M1841.19,1130.23c0-12.16-2.84-23.16-8.5-33-5.67-9.83-13.71-17.63-24.13-23.38-10.41-5.75-22.37-8.62-35.87-8.62s-26.38,2.84-37.13,8.5c-10.75,5.67-19.08,13.46-25,23.37-5.91,9.92-8.87,20.97-8.87,33.13s3.08,23.21,9.25,33.12c6.16,9.92,15.08,17.72,26.75,23.38,11.66,5.67,25.66,8.5,42,8.5,11.33,0,21.83-1.29,31.5-3.88,9.66-2.58,17.25-5.87,22.75-9.87v-32h-1c-6.5,4.34-14.13,7.75-22.88,10.25s-18.21,3.75-28.37,3.75c-8.67,0-15.96-1.29-21.88-3.88-5.91-2.58-10.37-6.37-13.37-11.37-1.31-2.19-2.34-4.53-3.08-7h97.58c.16-2.83.25-6.5.25-11ZM1743.89,1116.73c.52-1.72,1.17-3.35,1.92-4.88,2.59-5.25,6.21-9.25,10.88-12,4.66-2.75,10.16-4.12,16.5-4.12s11.5,1.34,16,4c4.5,2.67,8,6.67,10.5,12,.74,1.57,1.36,3.24,1.88,5h-57.68Z"/><path class="cls-4" d="M1942.44,1067.73l-33.46,72.3-33.29-72.3h-46.5l60.5,126.25h38.75l60.25-126.25h-46.25Z"/><path class="cls-4" d="M2116.18,1130.23c0-12.16-2.83-23.16-8.5-33-5.66-9.83-13.71-17.63-24.12-23.38-10.42-5.75-22.38-8.62-35.88-8.62s-26.37,2.84-37.12,8.5c-10.75,5.67-19.09,13.46-25,23.37-5.92,9.92-8.88,20.97-8.88,33.13s3.09,23.21,9.25,33.12c6.17,9.92,15.09,17.72,26.75,23.38,11.06,5.37,24.21,8.2,39.45,8.47.84.02,1.69.03,2.55.03,11.34,0,21.84-1.29,31.5-3.88,9.67-2.58,17.25-5.87,22.75-9.87v-18.24h-44.63c-2.49.16-5.03.24-7.62.24-1.56,0-3.08-.04-4.55-.13-6.7-.38-12.48-1.63-17.32-3.75-5.92-2.58-10.38-6.37-13.38-11.37-1.31-2.19-2.34-4.53-3.07-7h97.57c.17-2.83.25-6.5.25-11ZM2018.88,1116.73c.53-1.72,1.18-3.35,1.93-4.88,2.58-5.25,6.21-9.25,10.87-12,4.67-2.75,10.17-4.12,16.5-4.12s11.5,1.34,16,4c4.5,2.67,8,6.67,10.5,12,.74,1.57,1.36,3.24,1.88,5h-57.68Z"/><path class="cls-4" d="M2122.68,1067.73v125h41.75v-125h-41.75ZM2242.31,1080.1c-8.75-9.91-20.46-14.87-35.13-14.87-9.67,0-18.29,2.21-25.87,6.62-7.08,4.12-12.7,9.99-16.88,17.59-.29.54-.59,1.1-.87,1.66-4.25,8.42-6.38,18.3-6.38,29.63l7.25,15c0-6.5,1.21-12.16,3.63-17,2.41-4.83,5.66-8.54,9.75-11.13,4.08-2.58,8.7-3.87,13.87-3.87,7.17,0,12.67,2.21,16.5,6.62,3.83,4.42,5.75,10.88,5.75,19.38v63h41.5v-72c0-17.16-4.37-30.71-13.12-40.63Z"/><text class="cls-3" transform="translate(1502.11 1007.12) scale(1.08 1)"><tspan class="cls-7" x="0" y="0">C</tspan><tspan class="cls-6" x="34.41" y="0">o</tspan><tspan class="cls-5" x="68.76" y="0">ff</tspan><tspan class="cls-1" x="109.38" y="0">ee</tspan></text><rect class="cls-4" x="1639.19" y="1154.99" width="23.8" height="37.75"/><polygon class="cls-4" points="2054.69 1195.24 2164.44 1195.24 2164.44 1192.74 2164.44 1163.25 2122.69 1163.25 2108.94 1163.25 2064.31 1163.25 2050.52 1163.25 2037.62 1163.25 2037.62 1194.09 2054.69 1195.24"/><rect class="cls-4" x="2213.93" y="1184.35" width="41.5" height="10.88"/></svg>